<svg width="297" height="32" viewBox="0 0 297 32" fill="none" xmlns="http://www.w3.org/2000/svg">
<path fill-rule="evenodd" clip-rule="evenodd" d="M18.666 1.11987V6.45288H26.666V25.1199H20V22.4529H24V9.11987H2.66602V22.4529H6.66602V25.1199H0V6.45288H8V1.11987H18.666ZM10.666 3.78687V6.45288H16V3.78687H10.666Z" fill="#8232FF"/>
<path d="M14.666 19.7869H17.333V22.4529H14.666V25.1199H12V22.4529H9.33301V19.7869H12V11.7869H14.666V19.7869Z" fill="#8232FF"/>
<path d="M9.33301 19.7869H6.66602V17.1199H9.33301V19.7869Z" fill="#8232FF"/>
<path d="M20 19.7869H17.333V17.1199H20V19.7869Z" fill="#8232FF"/>
<path d="M46.4014 25.1201H42.8081V1.06299H54.5547C56.8535 1.06299 58.6045 1.68604 59.8076 2.93213C61.0107 4.17822 61.6123 5.9292 61.6123 8.18506C61.6123 9.60303 61.2954 10.8169 60.6616 11.8267C60.0278 12.8364 59.1685 13.54 58.0835 13.9375V14.1631H59.3081C60.8872 14.1631 61.6768 15.0225 61.6768 16.7412V25.1201H58.0513V16.0483H46.4014V25.1201ZM46.4014 4.20508V13.0352H53.749C55.0059 13.0352 55.9888 12.729 56.6978 12.1167C57.4175 11.4937 57.7773 10.6558 57.7773 9.60303V7.60498C57.7773 6.49854 57.4229 5.65527 56.7139 5.0752C56.0156 4.49512 55.0273 4.20508 53.749 4.20508H46.4014Z" fill="#201F24"/>
<path d="M63.145 16.4028C63.145 13.5991 63.8808 11.4023 65.3525 9.8125C66.8242 8.22266 68.8276 7.42773 71.3628 7.42773C73.7583 7.42773 75.6597 8.13135 77.0669 9.53857C78.4956 10.9673 79.2099 12.8955 79.2099 15.3232C79.2099 15.8926 79.167 16.5156 79.081 17.1924H66.6416V18.1592C66.6416 19.5342 67.082 20.646 67.9629 21.4946C68.8437 22.3325 69.9985 22.7515 71.4272 22.7515C72.5552 22.7515 73.5166 22.4883 74.3115 21.9619C75.1172 21.4355 75.6543 20.7266 75.9228 19.835H79.2744C78.9306 21.5322 78.039 22.8911 76.5996 23.9116C75.1709 24.9321 73.436 25.4424 71.395 25.4424C68.8384 25.4424 66.8242 24.6313 65.3525 23.0093C63.8808 21.3872 63.145 19.1851 63.145 16.4028ZM66.6416 14.3564V14.7593H75.7778V14.1953C75.7778 12.9814 75.3696 12.0039 74.5532 11.2627C73.7368 10.5107 72.6626 10.1348 71.3306 10.1348C69.9448 10.1348 68.8169 10.5269 67.9468 11.311C67.0766 12.0845 66.6416 13.0996 66.6416 14.3564Z" fill="#201F24"/>
<path d="M79.9531 20.1411C79.9531 18.4438 80.5063 17.1226 81.6128 16.1772C82.7299 15.2319 84.2768 14.7593 86.2534 14.7593H91.2968V13.5024C91.2968 11.2573 90.1098 10.1348 87.7358 10.1348C86.5864 10.1348 85.6894 10.3979 85.0449 10.9243C84.4111 11.4507 84.0673 12.1812 84.0136 13.1157H80.646C80.7534 11.3218 81.4463 9.92529 82.7246 8.92627C84.0136 7.92725 85.7378 7.42773 87.8969 7.42773C88.9819 7.42773 89.9648 7.57812 90.8457 7.87891C91.7265 8.17969 92.4087 8.57178 92.8921 9.05518C94.0952 10.2046 94.6967 11.7085 94.6967 13.5669V22.6387H97.146V25.1201H94.0039C93.166 25.1201 92.559 24.959 92.1831 24.6367C91.8071 24.3145 91.5922 23.8149 91.5385 23.1382L91.5063 22.3164H91.2646C90.8886 23.2617 90.1743 24.019 89.1215 24.5884C88.0796 25.1577 86.8711 25.4424 85.4961 25.4424C83.788 25.4424 82.4345 24.9644 81.4355 24.0083C80.4472 23.0415 79.9531 21.7524 79.9531 20.1411ZM83.4174 19.416V20.3345C83.4174 21.1187 83.6806 21.7202 84.207 22.1392C84.7441 22.5474 85.4907 22.7515 86.4467 22.7515C87.9399 22.7515 89.1215 22.3164 89.9917 21.4463C90.8618 20.5654 91.2968 19.3945 91.2968 17.9336V17.0957H86.6884C85.6572 17.0957 84.8515 17.3052 84.2714 17.7241C83.7021 18.1323 83.4174 18.6963 83.4174 19.416Z" fill="#201F24"/>
<path d="M109.974 19.0776H113.342C113.073 21.0542 112.241 22.6118 110.844 23.7505C109.458 24.8784 107.686 25.4424 105.527 25.4424C102.927 25.4424 100.892 24.6421 99.4199 23.0415C97.9697 21.4302 97.2446 19.2388 97.2446 16.4673C97.2446 13.6313 98.0019 11.4238 99.5165 9.84473C101.063 8.2334 103.099 7.42773 105.623 7.42773C107.675 7.42773 109.399 7.9917 110.796 9.11963C112.192 10.2368 113.03 11.73 113.31 13.5991H109.91C109.652 12.5142 109.136 11.6924 108.363 11.1338C107.589 10.5752 106.633 10.2959 105.495 10.2959C104.055 10.2959 102.895 10.7524 102.014 11.6655C101.144 12.5786 100.709 13.7656 100.709 15.2266V17.9336C100.709 19.3623 101.144 20.501 102.014 21.3496C102.895 22.1875 104.055 22.6064 105.495 22.6064C106.698 22.6064 107.691 22.2949 108.476 21.6719C109.27 21.0488 109.77 20.1841 109.974 19.0776Z" fill="#201F24"/>
<path d="M123.092 10.6021H119.499V22.3486H123.092V25.1201H118.999C117.087 25.1201 116.131 24.1855 116.131 22.3164V10.6021H113.005V7.76611H116.131V2.12646H119.499V7.76611H123.092V10.6021Z" fill="#201F24"/>
<path d="M134.682 25.1201H131.088V1.06299H135.439L147.411 20.3989H147.588L147.347 13.2124V1.06299H150.908V25.1201H146.557L134.617 5.78418H134.44L134.682 12.7129V25.1201Z" fill="#201F24"/>
<path d="M153.359 20.1411C153.359 18.4438 153.912 17.1226 155.018 16.1772C156.136 15.2319 157.682 14.7593 159.659 14.7593H164.702V13.5024C164.702 11.2573 163.515 10.1348 161.141 10.1348C159.992 10.1348 159.095 10.3979 158.451 10.9243C157.817 11.4507 157.473 12.1812 157.419 13.1157H154.052C154.159 11.3218 154.852 9.92529 156.13 8.92627C157.419 7.92725 159.143 7.42773 161.303 7.42773C162.388 7.42773 163.37 7.57812 164.251 7.87891C165.132 8.17969 165.814 8.57178 166.298 9.05518C167.501 10.2046 168.102 11.7085 168.102 13.5669V22.6387H170.552V25.1201H167.41C166.572 25.1201 165.965 24.959 165.589 24.6367C165.213 24.3145 164.998 23.8149 164.944 23.1382L164.912 22.3164H164.67C164.294 23.2617 163.58 24.019 162.527 24.5884C161.485 25.1577 160.277 25.4424 158.902 25.4424C157.194 25.4424 155.84 24.9644 154.841 24.0083C153.853 23.0415 153.359 21.7524 153.359 20.1411ZM156.823 19.416V20.3345C156.823 21.1187 157.086 21.7202 157.613 22.1392C158.15 22.5474 158.896 22.7515 159.852 22.7515C161.346 22.7515 162.527 22.3164 163.397 21.4463C164.267 20.5654 164.702 19.3945 164.702 17.9336V17.0957H160.094C159.063 17.0957 158.257 17.3052 157.677 17.7241C157.108 18.1323 156.823 18.6963 156.823 19.416Z" fill="#201F24"/>
<path d="M183.235 5.15576V1.09521H186.586V5.15576H183.235ZM176 7.76611H186.586V25.1201H183.235V10.6021H176V22.3486H179.464V25.1201H175.645C174.56 25.1201 173.787 24.8677 173.325 24.3628C172.863 23.8579 172.621 23.1113 172.6 22.123V10.6021H169.474V7.76611H172.6V2.12646H176V7.76611Z" fill="#201F24"/>
<path d="M193.436 25.1201L187.233 7.76611H190.987L193.759 16.4673L195.386 21.8169H195.579L197.159 16.4995L199.93 7.76611H203.668L197.561 25.1201H193.436Z" fill="#201F24"/>
<path d="M202.881 16.4028C202.881 13.5991 203.617 11.4023 205.088 9.8125C206.56 8.22266 208.563 7.42773 211.098 7.42773C213.494 7.42773 215.395 8.13135 216.803 9.53857C218.231 10.9673 218.946 12.8955 218.946 15.3232C218.946 15.8926 218.903 16.5156 218.817 17.1924H206.377V18.1592C206.377 19.5342 206.818 20.646 207.699 21.4946C208.579 22.3325 209.734 22.7515 211.163 22.7515C212.291 22.7515 213.252 22.4883 214.047 21.9619C214.853 21.4355 215.39 20.7266 215.658 19.835H219.01C218.666 21.5322 217.775 22.8911 216.335 23.9116C214.907 24.9321 213.172 25.4424 211.131 25.4424C208.574 25.4424 206.56 24.6313 205.088 23.0093C203.617 21.3872 202.881 19.1851 202.881 16.4028ZM206.377 14.3564V14.7593H215.513V14.1953C215.513 12.9814 215.105 12.0039 214.289 11.2627C213.472 10.5107 212.398 10.1348 211.066 10.1348C209.68 10.1348 208.553 10.5269 207.682 11.311C206.812 12.0845 206.377 13.0996 206.377 14.3564Z" fill="#201F24"/>
<path d="M241.621 25.1201H227.071V1.06299H230.664V21.8813H241.621V25.1201Z" fill="#201F24"/>
<path d="M241.703 16.4028C241.703 13.5991 242.439 11.4023 243.911 9.8125C245.383 8.22266 247.386 7.42773 249.921 7.42773C252.317 7.42773 254.218 8.13135 255.625 9.53857C257.054 10.9673 257.768 12.8955 257.768 15.3232C257.768 15.8926 257.725 16.5156 257.639 17.1924H245.2V18.1592C245.2 19.5342 245.64 20.646 246.521 21.4946C247.402 22.3325 248.557 22.7515 249.986 22.7515C251.114 22.7515 252.075 22.4883 252.87 21.9619C253.676 21.4355 254.213 20.7266 254.481 19.835H257.833C257.489 21.5322 256.597 22.8911 255.158 23.9116C253.729 24.9321 251.994 25.4424 249.953 25.4424C247.397 25.4424 245.383 24.6313 243.911 23.0093C242.439 21.3872 241.703 19.1851 241.703 16.4028ZM245.2 14.3564V14.7593H254.336V14.1953C254.336 12.9814 253.928 12.0039 253.112 11.2627C252.295 10.5107 251.221 10.1348 249.889 10.1348C248.503 10.1348 247.375 10.5269 246.505 11.311C245.635 12.0845 245.2 13.0996 245.2 14.3564Z" fill="#201F24"/>
<path d="M264.554 21.5269H268.937C270.645 21.5269 271.977 21.9243 272.933 22.7192C273.9 23.5142 274.383 24.6099 274.383 26.0063C274.383 27.7144 273.636 28.998 272.143 29.8574C270.661 30.7275 268.545 31.1626 265.795 31.1626C263.324 31.1626 261.455 30.7974 260.187 30.0669C258.92 29.3472 258.286 28.3374 258.286 27.0376C258.286 25.3081 259.161 24.1641 260.912 23.6055V23.3638C260.386 23.1812 259.962 22.8696 259.639 22.4292C259.328 21.978 259.172 21.4785 259.172 20.9307C259.172 20.2539 259.387 19.6523 259.817 19.126C260.257 18.5889 260.832 18.2129 261.541 17.998V17.7563C259.833 16.7788 258.979 15.2534 258.979 13.1802C258.979 11.4722 259.591 10.0864 260.816 9.02295C262.04 7.95947 263.635 7.42773 265.601 7.42773C266.665 7.42773 267.669 7.59424 268.614 7.92725V7.39551C268.614 5.83789 269.501 5.05908 271.273 5.05908H274.093V7.83057H270.822V9.24854C271.918 10.269 272.466 11.6118 272.466 13.2769C272.466 15.0063 271.864 16.3706 270.661 17.3696C269.415 18.4009 267.841 18.9165 265.94 18.9165C265.177 18.9165 264.393 18.8306 263.587 18.6587C263.2 18.7339 262.889 18.9111 262.653 19.1904C262.416 19.4697 262.298 19.7866 262.298 20.1411C262.298 21.0649 263.05 21.5269 264.554 21.5269ZM262.33 12.6484V13.7603C262.33 14.5767 262.636 15.2373 263.249 15.7422C263.872 16.2471 264.699 16.4995 265.73 16.4995C266.74 16.4995 267.556 16.2471 268.179 15.7422C268.813 15.2266 269.13 14.5659 269.13 13.7603V12.6484C269.13 11.8105 268.813 11.1392 268.179 10.6343C267.556 10.1294 266.74 9.87695 265.73 9.87695C264.699 9.87695 263.872 10.1294 263.249 10.6343C262.636 11.1392 262.33 11.8105 262.33 12.6484ZM266.036 28.6489C269.334 28.6489 270.983 27.8271 270.983 26.1836C270.983 24.9268 270.183 24.2983 268.582 24.2983H264.087C262.346 24.2983 261.476 24.9805 261.476 26.3447C261.476 27.1504 261.842 27.7358 262.572 28.1011C263.302 28.4663 264.457 28.6489 266.036 28.6489Z" fill="#201F24"/>
<path d="M274.288 20.1411C274.288 18.4438 274.841 17.1226 275.948 16.1772C277.065 15.2319 278.612 14.7593 280.589 14.7593H285.632V13.5024C285.632 11.2573 284.445 10.1348 282.071 10.1348C280.922 10.1348 280.025 10.3979 279.38 10.9243C278.746 11.4507 278.403 12.1812 278.349 13.1157H274.981C275.089 11.3218 275.781 9.92529 277.06 8.92627C278.349 7.92725 280.073 7.42773 282.232 7.42773C283.317 7.42773 284.3 7.57812 285.181 7.87891C286.062 8.17969 286.744 8.57178 287.227 9.05518C288.43 10.2046 289.032 11.7085 289.032 13.5669V22.6387H291.481V25.1201H288.339C287.501 25.1201 286.894 24.959 286.518 24.6367C286.142 24.3145 285.927 23.8149 285.874 23.1382L285.841 22.3164H285.6C285.224 23.2617 284.509 24.019 283.457 24.5884C282.415 25.1577 281.206 25.4424 279.831 25.4424C278.123 25.4424 276.77 24.9644 275.771 24.0083C274.782 23.0415 274.288 21.7524 274.288 20.1411ZM277.753 19.416V20.3345C277.753 21.1187 278.016 21.7202 278.542 22.1392C279.079 22.5474 279.826 22.7515 280.782 22.7515C282.275 22.7515 283.457 22.3164 284.327 21.4463C285.197 20.5654 285.632 19.3945 285.632 17.9336V17.0957H281.024C279.992 17.0957 279.187 17.3052 278.607 17.7241C278.037 18.1323 277.753 18.6963 277.753 19.416Z" fill="#201F24"/>
<path d="M296.269 25.1201H292.901V0.837402H296.269V25.1201Z" fill="#201F24"/>
</svg>
